{
    "asset" : {
        "generator" : "Khronos glTF Blender I/O v1.1.46",
        "version" : "2.0"
    },
    "scene" : 0,
    "scenes" : [
        {
            "name" : "Scene",
            "nodes" : [
                0
            ]
        }
    ],
    "nodes" : [
        {
            "mesh" : 0,
            "name" : "Plane.005",
            "rotation" : [
                0.5,
                0.5,
                -0.4999999701976776,
                0.5000000596046448
            ],
            "scale" : [
                0.9800456166267395,
                0.9800456166267395,
                0.9800456166267395
            ],
            "translation" : [
                31.14935302734375,
                10.313770294189453,
                -0.05289030075073242
            ]
        }
    ],
    "materials" : [
        {
            "doubleSided" : true,
            "emissiveFactor" : [
                0,
                0,
                0
            ],
            "name" : "Material.009",
            "pbrMetallicRoughness" : {
                "baseColorTexture" : {
                    "index" : 0,
                    "texCoord" : 0
                },
                "metallicFactor" : 0,
                "roughnessFactor" : 0.5
            }
        }
    ],
    "meshes" : [
        {
            "name" : "Plane.004",
            "primitives" : [
                {
                    "attributes" : {
                        "POSITION" : 0,
                        "NORMAL" : 1,
                        "TEXCOORD_0" : 2
                    },
                    "indices" : 3,
                    "material" : 0
                }
            ]
        }
    ],
    "textures" : [
        {
            "source" : 0
        }
    ],
    "images" : [
        {
            "bufferView" : 4,
            "mimeType" : "image/jpeg",
            "name" : "full_ao"
        }
    ],
    "accessors" : [
        {
            "bufferView" : 0,
            "componentType" : 5126,
            "count" : 1477,
            "max" : [
                5.9675493240356445,
                1.4309301376342773,
                8.857227325439453
            ],
            "min" : [
                -5.9675493240356445,
                -4.877082347869873,
                -4.48480749130249
            ],
            "type" : "VEC3"
        },
        {
            "bufferView" : 1,
            "componentType" : 5126,
            "count" : 1477,
            "type" : "VEC3"
        },
        {
            "bufferView" : 2,
            "componentType" : 5126,
            "count" : 1477,
            "type" : "VEC2"
        },
        {
            "bufferView" : 3,
            "componentType" : 5123,
            "count" : 7980,
            "type" : "SCALAR"
        }
    ],
    "bufferViews" : [
        {
            "buffer" : 0,
            "byteLength" : 17724,
            "byteOffset" : 0
        },
        {
            "buffer" : 0,
            "byteLength" : 17724,
            "byteOffset" : 17724
        },
        {
            "buffer" : 0,
            "byteLength" : 11816,
            "byteOffset" : 35448
        },
        {
            "buffer" : 0,
            "byteLength" : 15960,
            "byteOffset" : 47264
        },
        {
            "buffer" : 0,
            "byteLength" : 774372,
            "byteOffset" : 63224
        }
    ],
    "buffers" : [
        {
            "byteLength" : 837596,
            "uri" : "data:application/octet-stream;base64,"
        }
    ]
}
