{
    "asset" : {
        "generator" : "Khronos glTF Blender I/O v1.1.46",
        "version" : "2.0"
    },
    "scene" : 0,
    "scenes" : [
        {
            "name" : "Scene",
            "nodes" : [
                0
            ]
        }
    ],
    "nodes" : [
        {
            "mesh" : 0,
            "name" : "Plane.006",
            "rotation" : [
                0.5,
                0.5,
                -0.4999999701976776,
                0.5000000596046448
            ],
            "scale" : [
                0.9800456166267395,
                0.9800456166267395,
                0.9800456166267395
            ],
            "translation" : [
                31.14935302734375,
                10.313770294189453,
                -0.05289030075073242
            ]
        }
    ],
    "materials" : [
        {
            "doubleSided" : true,
            "emissiveFactor" : [
                0,
                0,
                0
            ],
            "name" : "Material.002",
            "pbrMetallicRoughness" : {
                "baseColorTexture" : {
                    "index" : 0,
                    "texCoord" : 0
                },
                "metallicFactor" : 0,
                "roughnessFactor" : 0.5
            }
        }
    ],
    "meshes" : [
        {
            "name" : "Plane.005",
            "primitives" : [
                {
                    "attributes" : {
                        "POSITION" : 0,
                        "NORMAL" : 1,
                        "TEXCOORD_0" : 2
                    },
                    "indices" : 3,
                    "material" : 0
                }
            ]
        }
    ],
    "textures" : [
        {
            "source" : 0
        }
    ],
    "images" : [
        {
            "bufferView" : 4,
            "mimeType" : "image/jpeg",
            "name" : "full_ao"
        }
    ],
    "accessors" : [
        {
            "bufferView" : 0,
            "componentType" : 5126,
            "count" : 1101,
            "max" : [
                3.7663285732269287,
                2.1828763484954834,
                5.933272361755371
            ],
            "min" : [
                -3.7567996978759766,
                -0.4060177803039551,
                -1.995361328125
            ],
            "type" : "VEC3"
        },
        {
            "bufferView" : 1,
            "componentType" : 5126,
            "count" : 1101,
            "type" : "VEC3"
        },
        {
            "bufferView" : 2,
            "componentType" : 5126,
            "count" : 1101,
            "type" : "VEC2"
        },
        {
            "bufferView" : 3,
            "componentType" : 5123,
            "count" : 6036,
            "type" : "SCALAR"
        }
    ],
    "bufferViews" : [
        {
            "buffer" : 0,
            "byteLength" : 13212,
            "byteOffset" : 0
        },
        {
            "buffer" : 0,
            "byteLength" : 13212,
            "byteOffset" : 13212
        },
        {
            "buffer" : 0,
            "byteLength" : 8808,
            "byteOffset" : 26424
        },
        {
            "buffer" : 0,
            "byteLength" : 12072,
            "byteOffset" : 35232
        },
        {
            "buffer" : 0,
            "byteLength" : 773833,
            "byteOffset" : 47304
        }
    ],
    "buffers" : [
        {
            "byteLength" : 821140,
            "uri" : "data:application/octet-stream;base64,"
        }
    ]
}
