{
    "asset" : {
        "generator" : "Khronos glTF Blender I/O v1.1.46",
        "version" : "2.0"
    },
    "scene" : 0,
    "scenes" : [
        {
            "name" : "Scene",
            "nodes" : [
                0
            ]
        }
    ],
    "nodes" : [
        {
            "mesh" : 0,
            "name" : "Plane",
            "scale" : [
                0.25264573097229004,
                1,
                0.25264573097229004
            ],
            "translation" : [
                6.827247619628906,
                0.9783226251602173,
                40.22810363769531
            ]
        }
    ],
    "materials" : [
        {
            "doubleSided" : true,
            "emissiveFactor" : [
                0,
                0,
                0
            ],
            "name" : "Material.002",
            "pbrMetallicRoughness" : {
                "baseColorTexture" : {
                    "index" : 0,
                    "texCoord" : 0
                },
                "metallicFactor" : 0,
                "roughnessFactor" : 0.5
            }
        }
    ],
    "meshes" : [
        {
            "name" : "Plane.006",
            "primitives" : [
                {
                    "attributes" : {
                        "POSITION" : 0,
                        "NORMAL" : 1,
                        "TEXCOORD_0" : 2
                    },
                    "indices" : 3,
                    "material" : 0
                }
            ]
        }
    ],
    "textures" : [
        {
            "source" : 0
        }
    ],
    "images" : [
        {
            "bufferView" : 4,
            "mimeType" : "image/jpeg",
            "name" : "full_ao"
        }
    ],
    "accessors" : [
        {
            "bufferView" : 0,
            "componentType" : 5126,
            "count" : 28043,
            "max" : [
                0.7429828643798828,
                -0.33545759320259094,
                1.068174958229065
            ],
            "min" : [
                -54.72480773925781,
                -0.6131348013877869,
                -10.225353240966797
            ],
            "type" : "VEC3"
        },
        {
            "bufferView" : 1,
            "componentType" : 5126,
            "count" : 28043,
            "type" : "VEC3"
        },
        {
            "bufferView" : 2,
            "componentType" : 5126,
            "count" : 28043,
            "type" : "VEC2"
        },
        {
            "bufferView" : 3,
            "componentType" : 5123,
            "count" : 43455,
            "type" : "SCALAR"
        }
    ],
    "bufferViews" : [
        {
            "buffer" : 0,
            "byteLength" : 336516,
            "byteOffset" : 0
        },
        {
            "buffer" : 0,
            "byteLength" : 336516,
            "byteOffset" : 336516
        },
        {
            "buffer" : 0,
            "byteLength" : 224344,
            "byteOffset" : 673032
        },
        {
            "buffer" : 0,
            "byteLength" : 86910,
            "byteOffset" : 897376
        },
        {
            "buffer" : 0,
            "byteLength" : 773833,
            "byteOffset" : 984288
        }
    ],
    "buffers" : [
        {
            "byteLength" : 1758124,
            "uri" : "data:application/octet-stream;base64,"
        }
    ]
}
