{
    "asset" : {
        "generator" : "Khronos glTF Blender I/O v1.1.46",
        "version" : "2.0"
    },
    "scene" : 0,
    "scenes" : [
        {
            "name" : "Scene",
            "nodes" : [
                0
            ]
        }
    ],
    "nodes" : [
        {
            "mesh" : 0,
            "name" : "Plane.001",
            "translation" : [
                -0.8581862449645996,
                0.6851488351821899,
                38.97964096069336
            ]
        }
    ],
    "materials" : [
        {
            "doubleSided" : true,
            "emissiveFactor" : [
                0,
                0,
                0
            ],
            "name" : "Material.002",
            "pbrMetallicRoughness" : {
                "baseColorTexture" : {
                    "index" : 0,
                    "texCoord" : 0
                },
                "metallicFactor" : 0,
                "roughnessFactor" : 0.5
            }
        }
    ],
    "meshes" : [
        {
            "name" : "Plane.002",
            "primitives" : [
                {
                    "attributes" : {
                        "POSITION" : 0,
                        "NORMAL" : 1,
                        "TEXCOORD_0" : 2
                    },
                    "indices" : 3,
                    "material" : 0
                }
            ]
        }
    ],
    "textures" : [
        {
            "source" : 0
        }
    ],
    "images" : [
        {
            "bufferView" : 4,
            "mimeType" : "image/jpeg",
            "name" : "full_ao"
        }
    ],
    "accessors" : [
        {
            "bufferView" : 0,
            "componentType" : 5126,
            "count" : 560,
            "max" : [
                8.267162322998047,
                0,
                1.9208482503890991
            ],
            "min" : [
                -6.520467758178711,
                -0.6819222569465637,
                -1.7403420209884644
            ],
            "type" : "VEC3"
        },
        {
            "bufferView" : 1,
            "componentType" : 5126,
            "count" : 560,
            "type" : "VEC3"
        },
        {
            "bufferView" : 2,
            "componentType" : 5126,
            "count" : 560,
            "type" : "VEC2"
        },
        {
            "bufferView" : 3,
            "componentType" : 5123,
            "count" : 930,
            "type" : "SCALAR"
        }
    ],
    "bufferViews" : [
        {
            "buffer" : 0,
            "byteLength" : 6720,
            "byteOffset" : 0
        },
        {
            "buffer" : 0,
            "byteLength" : 6720,
            "byteOffset" : 6720
        },
        {
            "buffer" : 0,
            "byteLength" : 4480,
            "byteOffset" : 13440
        },
        {
            "buffer" : 0,
            "byteLength" : 1860,
            "byteOffset" : 17920
        },
        {
            "buffer" : 0,
            "byteLength" : 773833,
            "byteOffset" : 19780
        }
    ],
    "buffers" : [
        {
            "byteLength" : 793616,
            "uri" : "data:application/octet-stream;base64,"
        }
    ]
}
